<svg id="head_logo" data-name="Head Logo" fill="white" xmlns="http://www.w3.org/2000/svg" viewBox="0 0 100.02 30">
  <g>
    <g>
      <path d="m22.06,16.36c0-.17,0-.34,0-.51,0-.14-.03-.28-.05-.42-.36-2.05-1.33-3.71-3.09-4.86-1.59-1.04-3.36-1.27-5.21-1.04-3.63.45-6.21,3.47-6.1,7.12.02.75.3,1.39.83,1.92.69.7,1.54,1.11,2.46,1.39,2.07.64,4.19.69,6.31.37,1.24-.19,2.43-.54,3.47-1.28.93-.66,1.47-1.52,1.38-2.7h0Zm-9.42-1.28c-.03.61-.16,1.12-.53,1.53-.51.57-1.2.58-1.72.03-.69-.72-.73-2.2-.09-2.96.62-.74,1.51-.65,2.01.2.21.36.34.86.33,1.2h0Zm6.91,1.23c-.51.93-1.5.99-2.11.13-.53-.75-.5-2.01.07-2.73.57-.73,1.47-.68,1.98.1.26.41.37.86.36,1.34,0,.41-.1.8-.3,1.16h0Z"/>
      <path d="m15,0C6.72,0,0,6.72,0,15s6.72,15,15,15,15-6.72,15-15S23.28,0,15,0Zm10.51,15.94c.03.36-.1.7-.43.87-.44.22-.63.55-.75,1h0s3.61,3.37,1.17,4.09c-2.34.69-5.12,1.27-10.01,1.32-.12,0-.23,0-.33,0-.11,0-.22,0-.33,0-5.31,0-8.23-.6-10.67-1.33-2.44-.72,1.17-4.1,1.17-4.1-.04-.44-.24-.72-.63-.91s-.56-.56-.53-.98c0-.06.01-.12.02-.19-.61-.26-1.04-.86-1.04-1.57,0-.94.76-1.69,1.69-1.69.03,0,.07,0,.1,0,.01-.03.02-.06.04-.09.14-.35.36-.6.75-.65.54-.08.88-.35,1.18-.82,1.08-1.67,2.57-2.86,4.44-3.55,0,0,0,0,0,0,0,0,0,0,0,0,.01,0,.04-.02.07-.03.3-.12,1.47-.54,3.41-.54s3.31.5,3.71.67c0,0,0,0,0,0,.06.03.1.04.11.05,0,0,0,0,0,0,1.87.74,3.28,2.03,4.32,3.73.12.2.26.34.5.36.65.06,1.03.39,1.27.91.12-.03.25-.04.39-.04.94,0,1.69.76,1.69,1.69,0,.82-.58,1.5-1.35,1.66,0,.04,0,.09.01.13h0Z"/>
    </g>
  </g>
  <g>
    <path d="m35.66,6.23h4.35v5.78c.47-.45,2.05-1.99,5.17-1.99h.14c3.63,0,5.11,2.07,5.11,4.1v6.64h-4.39v-5.19c0-1.6-.9-2.61-2.81-2.61s-3.22,1.13-3.22,2.85v4.96h-4.35V6.23Z"/>
    <path d="m60.14,21.04h-1.11c-5.6,0-7.4-2.62-7.4-5.37v-.43c0-2.69,1.6-5.29,7.28-5.29h1.19c6.15,0,7.3,3.1,7.3,5.66v.72h-11.49c.25,1.23,1.31,2.05,3.71,2.05h.02c2.89,0,3.36-1.07,3.42-1.35h4.29v.02c0,1.42-.94,3.98-7.2,3.98Zm-4.16-6.87h7.03c-.27-1.11-1.33-1.78-3.51-1.78h-.02c-2.19,0-3.16.66-3.49,1.78Z"/>
    <path d="m73.14,20.94h-.25c-3.51,0-4.88-1.64-4.88-3.44v-.14c0-1.93,1.27-2.85,4.41-3.14l4.8-.45c.49-.04.66-.21.66-.55,0-.39-.2-.86-2.73-.86h-.1c-2.6,0-2.71.82-2.75,1.17h-4.04v-.04c0-1.39.41-3.55,6.26-3.55h1.07c6.09,0,6.48,1.87,6.48,3.4v4.02c0,.31.12.53.55.53h.57v2.85h-3.53c-.82,0-1.5-.47-1.66-1.44-.49.55-1.76,1.64-4.86,1.64Zm4.74-5.19l-4.16.64c-1.11.18-1.58.39-1.58.98v.02c0,.57.43,1.19,1.91,1.19,2.34,0,3.83-1.25,3.83-2.5v-.33Z"/>
    <path d="m100.02,6.23v14.52h-4.33v-1.6c-.29.39-1.81,1.85-5.19,1.85h-.25c-4.66,0-6.62-2.46-6.62-5.41v-.37c0-2.81,1.74-5.23,6.44-5.23h.31c3.28,0,4.78,1.23,5.27,1.66v-5.43h4.37Zm-4.37,9.21c0-1.37-1.41-2.69-3.98-2.69h-.1c-2.73,0-3.49,1.33-3.49,2.69v.08c0,1.27.98,2.71,3.53,2.71h.1c2.6,0,3.94-1.37,3.94-2.71v-.08Z"/>
  </g>
</svg>