<svg xmlns="http://www.w3.org/2000/svg" version="1.1" xmlns:xlink="http://www.w3.org/1999/xlink" xmlns:svgjs="http://svgjs.dev/svgjs" width="628.41" height="628.41"><svg id="SvgjsSvg1107" data-name="Layer 2" xmlns="http://www.w3.org/2000/svg" viewBox="0 0 628.41 628.41">
  <defs>
    <style>
      .cls-1 {
        fill: #24292e;
        fill-rule: evenodd;
      }
    </style>
  </defs>
  <g id="SvgjsG1106" data-name="Layer 1">
    <g>
      <path class="cls-1" d="m462.12,342.73c0-3.55.14-7.12-.05-10.65-.16-2.95-.62-5.89-1.13-8.8-7.47-42.85-27.8-77.68-64.65-101.73-33.33-21.76-70.46-26.59-109.04-21.82-76.04,9.41-130.02,72.79-127.78,149.14.46,15.76,6.3,29.09,17.29,40.27,14.38,14.62,32.27,23.22,51.47,29.11,43.41,13.33,87.69,14.5,132.27,7.75,25.94-3.92,50.82-11.36,72.64-26.72,19.53-13.75,30.8-31.87,28.98-56.55Zm-197.37-26.73c-.72,12.78-3.3,23.4-11.01,32.1-10.65,12.01-25.06,12.21-36.11.63-14.4-15.1-15.32-45.98-1.86-61.93,13.01-15.4,31.58-13.59,42.03,4.1,4.42,7.49,7.16,18.04,6.95,25.1Zm144.71,25.71c-10.66,19.49-31.46,20.81-44.23,2.74-11.08-15.67-10.38-42.14,1.51-57.21,12.01-15.24,30.87-14.31,41.4,2.1,5.48,8.53,7.69,18.01,7.55,28.06,0,8.64-2.08,16.71-6.23,24.31Z"></path>
      <path class="cls-1" d="m314.2,0C140.67,0,0,140.67,0,314.2s140.67,314.21,314.2,314.21,314.21-140.67,314.21-314.21S487.74,0,314.2,0Zm220.22,333.89c.54,7.52-2.18,14.67-8.98,18.14-9.2,4.7-13.22,11.46-15.61,20.92l.18-.15s75.6,70.72,24.48,85.87c-48.98,14.51-107.24,26.69-209.77,27.69-2.48.07-4.77.08-6.83.05-2.29.01-4.59.02-6.92.02-111.16,0-172.39-12.61-223.51-27.76-51.13-15.15,24.47-85.87,24.47-85.87-.77-9.28-5.11-15-13.29-19.08-8.18-4.08-11.74-11.64-11.11-20.62.09-1.29.22-2.59.33-3.88-12.84-5.35-21.86-18.01-21.86-32.79,0-19.6,15.89-35.5,35.5-35.5.72,0,1.43.03,2.14.07.26-.65.5-1.3.76-1.94,3-7.28,7.53-12.51,15.61-13.67,11.21-1.6,18.45-7.39,24.79-17.22,22.56-35.01,53.81-59.86,93.07-74.27,0,0,.01,0,.03-.01.04-.02.09-.04.14-.06.23-.12.74-.34,1.5-.64,6.36-2.57,30.79-11.21,71.43-11.21s69.38,10.57,77.8,13.98c.07.03.14.06.2.09,1.35.53,2.11.89,2.25.95.01.01.03.01.03.01,39.14,15.43,68.68,42.53,90.56,78.18,2.58,4.21,5.55,7.09,10.48,7.54,13.63,1.25,21.55,8.25,26.55,19.13,2.59-.6,5.29-.93,8.07-.93,19.6,0,35.5,15.9,35.5,35.5,0,17.11-12.1,31.39-28.21,34.75.07.9.15,1.8.22,2.71Z"></path>
    </g>
  </g>
</svg>
  <style>
    @media (prefers-color-scheme: light) {
      :root { filter: none; }
    }
    @media (prefers-color-scheme: dark) {
      :root { filter: invert(100%); }
    }
  </style>
</svg>