<svg
        viewBox="0 0 328 99"
        fill="#fff"
        xmlns="http://www.w3.org/2000/svg"
    >
        <path
            d="M111.808 0L79.0338 75.2413H53.4888L43.407 58.0479L25.5774 99H0L43.1152 0H68.6926L58.8377 22.6536L68.8871 39.847L86.2629 0H111.808Z"
        ></path>
        <path d="M111.808 99H86.2629L129.378 0H154.956L111.808 99Z"></path>
        <path d="M154.956 99H129.378L172.493 0H198.071L154.956 99Z"></path>
        <path d="M198.071 99H172.493L215.609 0H241.186L198.071 99Z"></path>
        <path d="M298.533 67.7009L259.307 99L302.455 0H328L298.533 67.7009Z"></path>
        <path d="M229.062 69.651L241.834 99L274.511 24.0187L248.966 23.9537L229.062 69.651Z"></path>
    </svg>